# xmcd CD database file
#
# Track frame offsets:
#	187
#	23177
#	46612
#
# Disc length: 924 seconds
#
# Revision: 0
# Processed by: cddbd v1.5.1PL0 Copyright (c) Steve Scherf et al.
# Submitted via: CDex 1.51
#
DISCID=17039a03
DTITLE=JUNGLE SMILE - 片思い
DYEAR=1997
DGENRE=J-POP
TTITLE0=片思い
TTITLE1=あの頃の海
TTITLE2=片思い(お稽古用)
EXTD=YEAR: 1997
EXTT0=
EXTT1=
EXTT2=
PLAYORDER=
